<?xml version="1.0" encoding="UTF-8"?>
<svg version="1.1" xmlns="http://www.w3.org/2000/svg" width="743" height="730">
<path d="M0 0 C1.36378709 -0.00397774 1.36378709 -0.00397774 2.75512543 -0.00803584 C5.83009784 -0.01575197 8.90503048 -0.0162889 11.98001194 -0.01688576 C14.19574024 -0.02089891 16.4114678 -0.02533688 18.62719446 -0.03016531 C24.73865346 -0.04215404 30.85010455 -0.04778464 36.961573 -0.05234647 C42.86933665 -0.05768397 48.77709137 -0.06766219 54.6848492 -0.07735593 C70.52210567 -0.10299932 86.35936699 -0.11802679 102.19663826 -0.13086639 C107.44471022 -0.13512133 112.69278183 -0.13968709 117.94085336 -0.14444971 C145.85565393 -0.16971794 173.77045509 -0.19176223 201.68526459 -0.20417786 C208.15481601 -0.20709912 214.62436742 -0.21006665 221.0939188 -0.21308327 C221.89767001 -0.21345418 222.70142123 -0.21382509 223.52952854 -0.21420723 C249.5606941 -0.22634963 275.59179184 -0.25726995 301.62292558 -0.29900479 C328.39388827 -0.34184725 355.16481517 -0.36842612 381.93581306 -0.37365257 C385.7219853 -0.37439296 389.50815747 -0.37530363 393.29432964 -0.37631035 C394.03944294 -0.37650096 394.78455624 -0.37669158 395.55224873 -0.37688797 C407.51605501 -0.38039373 419.4797761 -0.40065608 431.44355116 -0.42710699 C443.48690587 -0.45333067 455.53016276 -0.46094587 467.57354193 -0.4500057 C474.09140646 -0.44457651 480.60905504 -0.44762994 487.12688541 -0.47247124 C493.10544603 -0.49506593 499.08354528 -0.49414438 505.06211454 -0.47526737 C507.21378604 -0.47248161 509.36548951 -0.47798557 511.51710986 -0.4930803 C530.59349602 -0.61862127 547.26668067 2.41531615 564.32902622 11.16924095 C568.61624597 13.32536111 573.00140186 15.28437328 577.35759068 17.29643822 C581.79289052 19.37288946 586.02982926 21.65680016 590.25334263 24.13701439 C590.25334263 24.79701439 590.25334263 25.45701439 590.25334263 26.13701439 C590.93396763 26.32263939 591.61459263 26.50826439 592.31584263 26.69951439 C596.46735931 28.73110766 599.10341685 31.8148831 602.25334263 35.13701439 C603.23071325 36.0555958 604.20964246 36.97252471 605.19084263 37.88701439 C607.25334263 40.13701439 607.25334263 40.13701439 607.25334263 43.13701439 C608.24334263 43.46701439 609.23334263 43.79701439 610.25334263 44.13701439 C620.16441746 56.18012276 626.25382996 70.47139568 631.77287388 84.91045189 C632.01110874 85.53355247 632.24934361 86.15665306 632.49479771 86.79863548 C634.68199337 93.54113953 635.54668071 99.45553301 635.52178478 106.50729084 C635.52648924 107.42315024 635.5311937 108.33900965 635.53604072 109.28262237 C635.54934994 112.35017762 635.54850644 115.41756205 635.54768467 118.48514366 C635.55428632 120.70732713 635.56173839 122.92950821 635.56996763 125.15168625 C635.58997379 131.25764457 635.59743573 137.36356357 635.60274625 143.46955001 C635.60975951 149.37892662 635.62605499 155.28827336 635.64183412 161.19763199 C635.68346872 177.02593639 635.70445385 192.85424811 635.72209334 208.68259448 C635.73051401 216.17446677 635.74095693 223.66633587 635.75146239 231.15820548 C635.78723786 256.81713953 635.81722761 282.47607453 635.83210278 308.13502979 C635.83305228 309.74508288 635.83400406 311.35513596 635.8349581 312.96518904 C635.83543085 313.76360713 635.8359036 314.56202523 635.83639068 315.38463781 C635.83879301 319.42961947 635.84122393 323.47460111 635.84367466 327.51958275 C635.84415496 328.32231181 635.84463526 329.12504087 635.84513011 329.95209505 C635.8609114 355.97086887 635.90776777 381.98946022 635.97278655 408.00815439 C636.04144518 435.53380178 636.08081073 463.05934245 636.08739126 490.58507687 C636.0882263 493.60915987 636.08918541 496.63324281 636.09023762 499.65732574 C636.090484 500.40190881 636.09073038 501.14649188 636.09098423 501.91363806 C636.09564045 513.87502984 636.12691634 525.83620896 636.16792131 537.79752505 C636.20851509 549.83017748 636.21935565 561.86257559 636.20038004 573.89528381 C636.19089206 580.40888828 636.19504044 586.92194155 636.23390293 593.43546486 C636.26922027 599.40650808 636.26712927 605.37636307 636.23610835 611.34741939 C636.23136423 613.49956913 636.23996192 615.65180174 636.26376565 617.80382507 C636.40155471 631.09124696 634.76918162 640.75517869 628.18939118 652.37631 C626.76751989 655.05084543 625.76424315 657.84938086 624.75334263 660.69951439 C621.85487 668.48732974 618.11915864 675.794774 614.25334263 683.13701439 C613.77123325 684.07803001 613.28912388 685.01904564 612.79240513 685.98857689 C608.81617151 693.22853983 603.19377852 698.50786772 597.25334263 704.13701439 C596.45283482 704.97748314 595.652327 705.81795189 594.82756138 706.68388939 C591.98257142 709.39504826 588.94669083 711.50409984 585.62834263 713.57451439 C585.01297642 713.96284447 584.39761021 714.35117455 583.76359653 714.7512722 C558.96716066 730.25466412 558.96716066 730.25466412 548.21816105 730.26581556 C547.39263336 730.26908775 546.56710568 730.27235994 545.716562 730.2757313 C544.80801158 730.27424767 543.89946116 730.27276405 542.96337891 730.27123547 C541.99547522 730.2735877 541.02757153 730.27593993 540.03033742 730.27836344 C536.75573869 730.2850714 533.48117948 730.28459467 530.20657444 730.28418541 C527.84760097 730.28748292 525.48862807 730.29120825 523.1296559 730.29532689 C517.30617226 730.30431315 511.48269578 730.30857659 505.65920668 730.31084585 C498.68629182 730.31380539 491.71338707 730.32250137 484.74047751 730.33126013 C467.8845128 730.35211632 451.02854632 730.36257638 434.17257172 730.37138974 C426.19984937 730.37559478 418.22712777 730.38081698 410.25440606 730.38607427 C382.96803972 730.40396593 355.68167316 730.41896217 328.39530182 730.42639446 C326.68184701 730.42686922 324.9683922 730.42734511 323.25493738 730.42782212 C322.40520856 730.4280585 321.55547973 730.42829488 320.68000154 730.42853842 C316.37477734 730.42973963 312.06955315 730.43095507 307.76432896 730.4321804 C306.90994034 730.43242055 306.05555173 730.4326607 305.17527255 730.43290813 C277.47366219 730.44080114 249.77209464 730.46423225 222.07050297 730.49673635 C192.78970039 730.53103077 163.50892287 730.55074527 134.22809988 730.5540387 C131.01392971 730.55445625 127.79975956 730.55493581 124.58558941 730.55546188 C123.39844217 730.55564667 123.39844217 730.55564667 122.18731215 730.55583519 C109.4479261 730.55816777 96.70858975 730.57383103 83.96922141 730.59430373 C71.16430753 730.6145553 58.35945337 730.62004221 45.55452644 730.6105331 C38.61667218 730.60577477 31.67896521 730.60741462 24.74113369 730.62729454 C18.39060305 730.64485616 12.04035249 730.64398521 5.68981916 730.62839725 C3.39162699 730.62601053 1.09341578 730.63039948 -1.20474721 730.6422259 C-4.32877394 730.65730722 -7.45180351 730.64769755 -10.57580566 730.63199902 C-11.46796792 730.64222122 -12.36013018 730.65244343 -13.27932766 730.6629754 C-19.78225068 730.59166059 -24.87835649 728.88719692 -30.74665737 726.13701439 C-30.74665737 725.47701439 -30.74665737 724.81701439 -30.74665737 724.13701439 C-31.43372768 723.88435814 -32.120798 723.63170189 -32.82868862 723.37138939 C-36.18357754 721.95218605 -39.29184251 720.21531741 -42.43415737 718.38701439 C-43.04557583 718.03429466 -43.65699429 717.68157494 -44.28694057 717.31816673 C-57.06049942 709.92778636 -57.06049942 709.92778636 -62.74665737 706.13701439 C-62.74665737 705.47701439 -62.74665737 704.81701439 -62.74665737 704.13701439 C-63.36540737 703.91013939 -63.98415737 703.68326439 -64.62165737 703.44951439 C-67.36075946 701.75771604 -67.79690209 700.14457278 -68.74665737 697.13701439 C-69.40665737 697.13701439 -70.06665737 697.13701439 -70.74665737 697.13701439 C-70.74665737 696.47701439 -70.74665737 695.81701439 -70.74665737 695.13701439 C-71.63030972 694.76769798 -71.63030972 694.76769798 -72.53181362 694.39092064 C-78.60609657 690.95204087 -82.25497697 683.52262145 -85.43415737 677.51982689 C-86.92608837 674.81126169 -88.5683686 672.23402158 -90.24665737 669.63701439 C-94.49187412 663.0200135 -98.18779189 656.69114746 -100.92139418 649.30465411 C-101.67791091 647.31758412 -102.48923047 645.3668306 -103.32581365 643.41247374 C-108.18495073 631.59617527 -108.59162876 620.7309888 -108.49510098 608.07950401 C-108.50059223 605.89008313 -108.50870499 603.70066754 -108.51918828 601.51126486 C-108.54023279 595.53751924 -108.52418908 589.56437779 -108.50168729 583.59065902 C-108.48392464 577.1318066 -108.50091287 570.67302991 -108.51341152 564.21417809 C-108.53239313 552.30743868 -108.52209796 540.40089646 -108.49908389 528.49417123 C-108.47796623 517.49298269 -108.46893866 506.49186263 -108.47167492 495.49065399 C-108.47184298 494.75938077 -108.47201104 494.02810754 -108.4721842 493.27467453 C-108.47288875 490.30580463 -108.47365679 487.33693476 -108.47451535 484.36806491 C-108.48243553 456.54969976 -108.4570563 428.73145559 -108.41546222 400.91312505 C-108.37872275 376.22559867 -108.36709966 351.53818821 -108.37800503 326.85063744 C-108.3786979 325.26518804 -108.37939009 323.67973864 -108.38008161 322.09428924 C-108.3804236 321.31045369 -108.38076559 320.52661815 -108.38111794 319.71903002 C-108.38282517 315.77287557 -108.38447273 311.8267211 -108.38605595 307.8805666 C-108.38637011 307.10196225 -108.38668427 306.3233579 -108.38700795 305.52115948 C-108.39499668 284.86026733 -108.38402536 264.19938626 -108.36703336 243.53850085 C-108.36521938 241.31410291 -108.36340808 239.08970496 -108.3616029 236.86530702 C-108.36040068 235.38985517 -108.35918344 233.91440333 -108.35795108 232.4389515 C-108.34952488 222.17398262 -108.3483449 211.90903565 -108.35216207 201.64406443 C-108.35705799 188.41309846 -108.34839716 175.18225732 -108.31774206 161.95132273 C-108.30328733 155.57565914 -108.2950716 149.20015725 -108.30422878 142.82448006 C-108.31241701 136.98117458 -108.30195102 131.1382021 -108.27697663 125.29494698 C-108.27114972 123.18819351 -108.27194405 121.08140835 -108.28026278 118.97466325 C-108.33500068 103.71982416 -107.0270109 89.77256065 -100.24665737 75.82451439 C-99.6290597 74.49387806 -99.01447724 73.16183814 -98.40290737 71.82842064 C-98.11415737 71.20080833 -97.82540737 70.57319603 -97.52790737 69.92656517 C-96.43541966 67.42408551 -95.59322824 64.85646217 -94.74665737 62.26201439 C-89.85937587 48.42852267 -77.58744498 37.12740551 -66.61384487 27.88310814 C-64.66203415 26.1776973 -64.66203415 26.1776973 -63.19196987 23.92217064 C-62.71501675 23.33306908 -62.23806362 22.74396751 -61.74665737 22.13701439 C-60.75665737 22.13701439 -59.76665737 22.13701439 -58.74665737 22.13701439 C-58.25165737 20.65201439 -58.25165737 20.65201439 -57.74665737 19.13701439 C-55.60974609 17.88280499 -53.54588223 16.80469597 -51.30915737 15.76201439 C-50.02524684 15.14364182 -48.74139297 14.5251516 -47.45759487 13.90654564 C-46.82434292 13.60571068 -46.19109097 13.30487572 -45.53864956 12.99492455 C-43.15066197 11.85168362 -40.79311427 10.65131735 -38.43415737 9.44951439 C-36.87176473 8.67846348 -35.3092706 7.90761817 -33.74665737 7.13701439 C-33.03509487 6.76576439 -32.32353237 6.39451439 -31.59040737 6.01201439 C-26.04161837 3.2778285 -20.68971679 2.30593562 -14.56696987 1.53154564 C-3.58271957 -0.00503231 -3.58271957 -0.00503231 0 0 Z " fill="#1F8D31" transform="translate(107.746657371521,-0.13701438903808594)"/>
<path d="M0 0 C1.0597945 -0.00523668 2.11958901 -0.01047336 3.2114985 -0.01586872 C6.76263956 -0.03087022 10.31363655 -0.03157392 13.86480713 -0.03224182 C16.41101322 -0.0398632 18.957217 -0.04829065 21.50341797 -0.0574646 C28.42087548 -0.07941867 35.33828309 -0.08823168 42.25577068 -0.09329104 C46.57797132 -0.09655167 50.90016309 -0.10307634 55.2223587 -0.11029243 C67.19796842 -0.12985385 79.1735699 -0.14626085 91.14919662 -0.14916897 C91.9150492 -0.14935654 92.68090178 -0.14954411 93.46996202 -0.14973736 C95.02241278 -0.1501036 96.57486354 -0.1504673 98.1273143 -0.15082847 C98.8979135 -0.15101128 99.66851269 -0.1511941 100.46246338 -0.15138245 C101.23400711 -0.151563 102.00555083 -0.15174354 102.80047467 -0.15192956 C115.29967711 -0.15547053 127.79870719 -0.18249007 140.29784986 -0.21988034 C153.14181827 -0.25799354 165.98570121 -0.27732666 178.82972741 -0.27762848 C186.03667443 -0.27821236 193.24341579 -0.28665931 200.45030975 -0.31562614 C207.2301681 -0.34275205 214.00955111 -0.34401937 220.78946686 -0.3279705 C223.27506904 -0.32615493 225.76069456 -0.33285639 228.24624634 -0.34878922 C231.64543917 -0.36924679 235.0432075 -0.3586979 238.44238281 -0.34057617 C239.91002095 -0.36037612 239.91002095 -0.36037612 241.40730834 -0.38057607 C250.87616245 -0.26565646 258.80895982 3.60795579 265.47515869 10.27415466 C270.39484092 16.87941047 272.72185996 22.9866173 272.7358551 31.30632019 C272.73968065 31.99042788 272.7435062 32.67453557 272.74744767 33.37937379 C272.75772108 35.65915881 272.75379635 37.93868929 272.74981689 40.2184906 C272.75416661 41.85830416 272.75935063 43.49811568 272.76530457 45.13792419 C272.77868055 49.58440248 272.7792746 54.03079568 272.77674127 58.47729015 C272.77567021 62.19470661 272.78055857 65.91210596 272.78534669 69.62951875 C272.79643788 78.4046318 272.79688202 87.17970205 272.79083252 95.95481873 C272.78479765 104.99227813 272.79709224 114.02958165 272.81840259 123.06701446 C272.83604937 130.83793812 272.84201494 138.60881231 272.83876485 146.37975526 C272.83695613 151.01565682 272.83954664 155.65144729 272.85347939 160.28733063 C272.86610258 164.65076738 272.86407135 169.01396237 272.8510685 173.37739563 C272.8487126 174.97285801 272.85140178 176.56833763 272.85969162 178.16378021 C272.92594088 191.91272977 271.27990684 202.46879777 261.95172119 212.99290466 C250.22289302 224.20680867 235.47898508 222.9750836 220.39825439 222.8735199 C217.95791372 222.87538575 215.5175739 222.87942625 213.07723999 222.88546753 C207.16013018 222.8943831 201.24334525 222.88027459 195.3263065 222.85532927 C188.42604816 222.82727611 181.52586059 222.82605586 174.6255547 222.82588626 C162.31029102 222.82470137 149.99519113 222.79979919 137.67999268 222.76121521 C125.74637894 222.7238513 113.81288423 222.70261754 101.87921143 222.69969177 C101.14369084 222.69950896 100.40817025 222.69932615 99.65036116 222.6991378 C98.91607522 222.69895883 98.18178928 222.69877986 97.42525226 222.69859546 C95.94660175 222.69823003 94.46795124 222.69785765 92.98930073 222.69747829 C92.25997301 222.69729278 91.53064529 222.69710727 90.77921673 222.69691613 C79.38080851 222.69334134 67.98241851 222.67488994 56.5840289 222.65498505 C52.4620644 222.64797851 48.3401042 222.64318663 44.21813504 222.6400237 C37.06789907 222.63448856 29.91775825 222.61875979 22.76756668 222.59183693 C20.39604823 222.58440997 18.02451656 222.58032584 15.65298653 222.57985687 C12.4117843 222.57859473 9.17085705 222.56501447 5.92970276 222.54830933 C4.99525764 222.55072441 4.06081253 222.55313949 3.09805089 222.55562776 C-8.017947 222.46616145 -17.2228758 220.0950541 -25.57171631 212.38352966 C-32.46564802 204.90037301 -35.63679142 197.57848038 -35.67201233 187.4445343 C-35.67752736 186.41481072 -35.67752736 186.41481072 -35.68315381 185.36428463 C-35.69416455 183.06453969 -35.69803006 180.76483996 -35.70184326 178.46507263 C-35.70810997 176.81570289 -35.71475695 175.16633457 -35.72175598 173.51696777 C-35.74277704 168.10010253 -35.75315767 162.68323708 -35.76312256 157.26634216 C-35.76717107 155.39931855 -35.77128803 153.53229508 -35.77547264 151.66527176 C-35.79452131 142.89163163 -35.8087521 134.11799989 -35.81708461 125.34434307 C-35.82685122 115.22851368 -35.85315705 105.11290345 -35.8935855 94.99715126 C-35.92378574 87.17107488 -35.93855726 79.34506119 -35.94186562 71.51892769 C-35.94421196 66.84828788 -35.9531179 62.17788227 -35.9783268 57.50730515 C-36.00168053 53.10939034 -36.00581156 48.71186274 -35.99556541 44.3139019 C-35.99507169 42.70552848 -36.00134374 41.09713552 -36.01512146 39.48882103 C-36.11193005 27.51158151 -34.91528957 18.00024544 -26.45062256 9.02806091 C-18.48207737 1.77070434 -10.53500773 -0.02576895 0 0 Z " fill="#F9F9F9" transform="translate(251.52484130859375,201.72584533691406)"/>
<path d="M0 0 C21.74494998 17.52780631 35.64458302 41.3189909 39.84204102 69.015625 C40.08489149 72.77277567 40.0771413 76.50974593 40.03735352 80.2734375 C40.03452362 81.30250214 40.03169373 82.33156677 40.02877808 83.39181519 C40.0176858 86.64154256 39.99260217 89.89098254 39.96704102 93.140625 C39.95699704 95.35937099 39.94787369 97.57812134 39.93969727 99.796875 C39.9194938 105.20332171 39.88032443 110.60915603 39.84204102 116.015625 C27.30204102 116.015625 14.76204102 116.015625 1.84204102 116.015625 C1.82786133 113.25316406 1.81368164 110.49070313 1.79907227 107.64453125 C1.76827698 104.90702951 1.72923453 102.16975732 1.68945312 99.43237305 C1.66655171 97.56006249 1.65194436 95.6876282 1.64648438 93.81518555 C1.57198719 72.44595551 -2.5877407 54.32180748 -17.78686523 38.328125 C-32.08474586 24.38356927 -48.92185083 18.43154559 -68.81445312 18.59594727 C-85.9307532 19.2020237 -103.25826343 26.83199936 -115.20092773 39.1171875 C-127.43758423 53.27099907 -133.05133421 70.8713921 -133.47436523 89.35546875 C-133.49301636 90.0364563 -133.51166748 90.71744385 -133.53088379 91.41906738 C-133.59849026 93.93030495 -133.65907666 96.44172758 -133.72045898 98.953125 C-133.86483398 104.58375 -134.00920898 110.214375 -134.15795898 116.015625 C-146.69795898 116.015625 -159.23795898 116.015625 -172.15795898 116.015625 C-172.25062734 109.49022824 -172.33000867 102.96718508 -172.37768555 96.44165039 C-172.39759461 94.22965692 -172.42473187 92.0177146 -172.4597168 89.8059082 C-172.97137054 56.5860364 -163.14139484 31.64480693 -139.97045898 7.453125 C-102.27615792 -29.29881854 -41.57884839 -32.5234638 0 0 Z " fill="#F9FAF9" transform="translate(436.157958984375,77.984375)"/>
<path d="M0 0 C14.90047975 11.02834285 26.17136379 27.46107903 29 46 C29.48794674 53.28465135 29.0655341 60.59049324 28.75 67.875 C28.68155632 69.83456531 28.61513559 71.79420238 28.55078125 73.75390625 C28.39417413 78.50432214 28.19629952 83.25040519 28 88 C40.87 88.495 40.87 88.495 54 89 C54 89.33 54 89.66 54 90 C47.565 90.495 47.565 90.495 41 91 C46.28 91.33 51.56 91.66 57 92 C57 92.33 57 92.66 57 93 C-9.33 93 -75.66 93 -144 93 C-144 92.67 -144 92.34 -144 92 C-143.03586182 91.97494385 -142.07172363 91.9498877 -141.07836914 91.92407227 C-137.51312158 91.83014694 -133.94807567 91.72989061 -130.38305664 91.62768555 C-128.83785711 91.58428015 -127.29260786 91.54260929 -125.74731445 91.50268555 C-123.53060904 91.44511801 -121.3141552 91.38138576 -119.09765625 91.31640625 C-118.4028566 91.29969376 -117.70805695 91.28298126 -116.99220276 91.26576233 C-113.71237971 91.43497144 -113.71237971 91.43497144 -111 90 C-112.0194873 89.98541748 -113.03897461 89.97083496 -114.08935547 89.95581055 C-117.86543166 89.89791534 -121.64090596 89.82068335 -125.41650391 89.73754883 C-127.05182134 89.70425786 -128.68725482 89.67623894 -130.32275391 89.65356445 C-132.67140243 89.62009372 -135.01898337 89.56778564 -137.3671875 89.51171875 C-138.10057343 89.50532883 -138.83395935 89.4989389 -139.58956909 89.49235535 C-141.65185547 89.43237305 -141.65185547 89.43237305 -145 89 C-147.54746131 85.17880804 -147.16026557 82.23668162 -146.9765625 77.83203125 C-146.93902359 76.63981209 -146.93902359 76.63981209 -146.90072632 75.42350769 C-146.8185843 72.8860675 -146.72197347 70.34941247 -146.625 67.8125 C-146.56675443 66.0918289 -146.50945128 64.37112562 -146.453125 62.65039062 C-146.31301433 58.43314254 -146.15992578 54.21654128 -146 50 C-145.67 50 -145.34 50 -145 50 C-145 62.21 -145 74.42 -145 87 C-132.46 87 -119.92 87 -107 87 C-107.11766525 76.15686455 -107.11766525 76.15686455 -107.27026367 65.31420898 C-107.39042873 52.63356619 -106.19904478 40.2765647 -100.75 28.625 C-100.44989014 27.96072998 -100.14978027 27.29645996 -99.84057617 26.61206055 C-97.2652608 21.12569392 -94.01375362 16.53769349 -90 12 C-89.38640625 11.18917969 -88.7728125 10.37835938 -88.140625 9.54296875 C-66.92205515 -15.66376295 -26.29577392 -17.16587021 0 0 Z " fill="#208D31" transform="translate(409,107)"/>
<path d="M0 0 C8.88558862 6.19403168 15.50345866 13.99583307 17.82421875 24.71484375 C19.14911637 35.24501963 16.73699803 44.21229876 10.32421875 52.65234375 C8.54513075 54.81555302 6.88659638 56.66419568 4.70922852 58.43212891 C2.55429303 60.60654787 2.55429303 60.60654787 2.54467773 63.68139648 C2.65626221 64.84614502 2.76784668 66.01089355 2.8828125 67.2109375 C2.94206406 67.85945175 3.00131561 68.507966 3.06236267 69.1761322 C3.94769998 78.09114228 5.44567405 86.93921311 6.88671875 95.77734375 C7.31123193 98.39618172 7.7336557 101.0152902 8.15049744 103.63536072 C8.40738534 105.24886836 8.6686395 106.86168932 8.93507385 108.47364807 C9.59090866 112.58010905 10.15429234 116.54427146 9.82421875 120.71484375 C7.23235039 123.30671211 6.18595247 122.96769691 2.58007812 122.97363281 C0.93827576 122.98308929 0.93827576 122.98308929 -0.73669434 122.99273682 C-1.92315552 122.98868835 -3.1096167 122.98463989 -4.33203125 122.98046875 C-5.54524048 122.9823822 -6.75844971 122.98429565 -8.00842285 122.98626709 C-10.57739468 122.98763009 -13.14637337 122.98392567 -15.71533203 122.97558594 C-19.65933629 122.96488835 -23.602885 122.97547769 -27.546875 122.98828125 C-30.03776143 122.98695968 -32.52864757 122.98439733 -35.01953125 122.98046875 C-36.79922302 122.98654144 -36.79922302 122.98654144 -38.61486816 122.99273682 C-39.70940308 122.9864325 -40.80393799 122.98012817 -41.93164062 122.97363281 C-42.89823608 122.97204163 -43.86483154 122.97045044 -44.86071777 122.96881104 C-47.17578125 122.71484375 -47.17578125 122.71484375 -49.17578125 120.71484375 C-49.20960999 118.72410583 -49.20960999 118.72410583 -48.90258789 116.28686523 C-48.79262482 115.38757294 -48.68266174 114.48828064 -48.56936646 113.56173706 C-48.43948334 112.62226227 -48.30960022 111.68278748 -48.17578125 110.71484375 C-48.05403534 109.82717316 -47.93228943 108.93950256 -47.80685425 108.02493286 C-47.40377494 105.20134435 -46.97823611 102.38190137 -46.546875 99.5625 C-46.39291763 98.54055038 -46.23896027 97.51860077 -46.08033752 96.46568298 C-45.59365547 93.23587827 -45.10382922 90.0065634 -44.61328125 86.77734375 C-44.11926928 83.52311499 -43.6260122 80.26878306 -43.13551331 77.01402283 C-42.83155525 74.99707583 -42.52558602 72.98043066 -42.21739197 70.96412659 C-42.0804744 70.05565475 -41.94355682 69.14718292 -41.80249023 68.21118164 C-41.68115219 67.41305557 -41.55981415 66.6149295 -41.43479919 65.7926178 C-41.11392937 63.56766025 -41.11392937 63.56766025 -41.17578125 60.71484375 C-42.83683611 59.3588806 -44.49805489 58.00311768 -46.16015625 56.6484375 C-53.67480478 49.43961769 -57.15730428 40.62082134 -57.55078125 30.40234375 C-57.37440086 20.78961246 -53.88006065 12.63492614 -47.17578125 5.71484375 C-33.17720913 -6.12823889 -16.37820947 -9.67402319 0 0 Z " fill="#1F8D30" transform="translate(390.17578125,257.28515625)"/>
<path d="M0 0 C8.58 0 17.16 0 26 0 C32.29583862 16.45754306 38.19086982 33.0223141 43.96337891 49.66894531 C47.44305255 59.69759376 50.95337993 69.71405996 54.5234375 79.7109375 C54.89417892 80.74956436 55.26492035 81.78819122 55.64689636 82.85829163 C57.45093599 87.90934978 59.25936629 92.95879489 61.07250977 98.0065918 C61.72420872 99.82858194 62.37582455 101.65060182 63.02734375 103.47265625 C63.3296994 104.31013397 63.63205505 105.14761169 63.943573 106.01046753 C66 111.77343376 66 111.77343376 66 114 C58.41 114 50.82 114 43 114 C40.10198906 106.75497264 37.4675674 99.40270221 35 92 C20.81 91.67 6.62 91.34 -8 91 C-8.99 94.96 -9.98 98.92 -11 103 C-13.8 112.8 -13.8 112.8 -15 114 C-16.70772358 114.08713831 -18.41898649 114.10700007 -20.12890625 114.09765625 C-21.68061523 114.09282227 -21.68061523 114.09282227 -23.26367188 114.08789062 C-24.35228516 114.07951172 -25.44089844 114.07113281 -26.5625 114.0625 C-28.2012207 114.05573242 -28.2012207 114.05573242 -29.87304688 114.04882812 C-32.58208495 114.03699826 -35.29101599 114.02051543 -38 114 C-37.38972516 109.74457202 -36.40116744 105.87962159 -34.99731445 101.8190918 C-34.58165222 100.60917572 -34.16598999 99.39925964 -33.73773193 98.15267944 C-33.27966032 96.83483188 -32.82150772 95.51701247 -32.36328125 94.19921875 C-31.88622818 92.81595413 -31.40961407 91.43253806 -30.93341064 90.04898071 C-29.92212849 87.11362369 -28.90795305 84.17928965 -27.89138794 81.24575806 C-26.31032474 76.68322858 -24.73547548 72.11857131 -23.16186523 67.5534668 C-21.59051199 62.99575694 -20.01882878 58.4381632 -18.44483948 53.88136292 C-14.12269706 41.36794671 -9.83347166 28.84347569 -5.5625 16.3125 C-4.97897232 14.60178965 -4.39539672 12.89109566 -3.81176758 11.18041992 C-2.54041423 7.45387295 -1.27019806 3.72694163 0 0 Z " fill="#FBFDFB" transform="translate(90,490)"/>
<path d="M0 0 C6.53169799 5.20980673 11.03441149 12.1917194 12.9375 20.375 C12.96189953 22.04148806 12.96541345 23.7085671 12.9375 25.375 C5.25266461 26.04953101 -2.34660183 26.5317564 -10.0625 26.375 C-10.31902344 25.69953125 -10.57554687 25.0240625 -10.83984375 24.328125 C-12.86826444 19.60197308 -14.4895261 16.0627125 -19.25 13.75 C-25.78660586 11.46978865 -32.12394344 11.20144898 -38.5 14.0625 C-41.84680242 16.01367226 -43.80067971 17.58953914 -45.0625 21.375 C-45.41023479 24.66648961 -45.16087736 27.24926436 -44.0625 30.375 C-38.56621562 35.84166769 -30.14679955 37.31555448 -22.9375 39.25 C5.19101164 47.2349652 5.19101164 47.2349652 11.9375 58.375 C16.09381451 66.55209703 16.14628384 75.42612838 13.375 84.0625 C9.6574789 93.21934146 2.18000487 100.69474757 -6.91015625 104.59765625 C-9.61126945 105.59055557 -12.31798404 106.51041097 -15.0625 107.375 C-16.0525 107.705 -17.0425 108.035 -18.0625 108.375 C-32.76285312 109.57425239 -46.73294602 109.07356105 -59.03125 100.1171875 C-66.65731057 93.57637401 -69.8960658 86.09031361 -72.0625 76.375 C-72.0625 75.385 -72.0625 74.395 -72.0625 73.375 C-64.4725 73.375 -56.8825 73.375 -49.0625 73.375 C-48.0725 76.015 -47.0825 78.655 -46.0625 81.375 C-43.8399268 83.92282781 -42.08382669 85.86433666 -39.0625 87.375 C-24.98533088 88.3253663 -24.98533088 88.3253663 -12.0625 83.375 C-9.94745576 80.20243365 -9.74332458 79.1732575 -9.6875 75.5 C-9.64496094 74.23542969 -9.64496094 74.23542969 -9.6015625 72.9453125 C-10.23768125 69.39814186 -11.49055923 67.88886469 -14.0625 65.375 C-16.4815724 64.16836437 -18.65507709 63.23842442 -21.1875 62.375 C-21.88182129 62.12500244 -22.57614258 61.87500488 -23.29150391 61.61743164 C-28.60555533 59.75201145 -33.9970073 58.25785394 -39.4375 56.8125 C-50.99513013 53.70886987 -59.62501697 50.15265118 -66.15625 39.609375 C-69.48577935 32.51871064 -69.22755715 23.14618643 -67.40625 15.6875 C-63.78125457 6.68751135 -56.58575428 -0.21925986 -48.0625 -4.625 C-33.12888433 -10.91658689 -13.38342272 -8.93433895 0 0 Z " fill="#FBFDFC" transform="translate(509.0625,495.625)"/>
<path d="M0 0 C6.77436071 5.38410012 10.71314489 12.02129428 11.71875 20.6640625 C11.780625 21.9428125 11.8425 23.2215625 11.90625 24.5390625 C4.21506404 25.29073163 -3.36602893 25.67597094 -11.09375 25.5390625 C-11.485625 24.3015625 -11.8775 23.0640625 -12.28125 21.7890625 C-14.12863037 16.88006115 -16.78006033 14.86117088 -21.28125 12.2890625 C-26.77170267 10.82494179 -32.60452238 10.69185547 -37.96875 12.7265625 C-41.41778791 14.72700449 -43.15516899 16.04961669 -45.09375 19.5390625 C-45.92555253 23.76667742 -45.78471946 26.45534861 -43.4375 30.13671875 C-40.72621049 32.9157905 -38.7677268 33.77103886 -35.09375 34.9765625 C-33.86011719 35.3890625 -32.62648438 35.8015625 -31.35546875 36.2265625 C-28.28751169 37.18963107 -25.20438878 38.09085155 -22.11328125 38.9765625 C3.84908011 46.42301756 3.84908011 46.42301756 11.90625 58.5390625 C15.17482392 66.48008963 15.00316339 75.17385684 12.34375 83.2890625 C7.90234909 93.9205692 1.07449852 99.91031098 -9.3359375 104.53515625 C-21.61988822 109.37920474 -38.38658224 109.77338727 -50.65234375 104.80078125 C-60.16356735 99.8853809 -66.45353554 93.11395866 -70.33203125 83.1640625 C-71.09375 80.5390625 -71.09375 80.5390625 -72.09375 73.5390625 C-64.50375 73.5390625 -56.91375 73.5390625 -49.09375 73.5390625 C-48.10375 76.1790625 -47.11375 78.8190625 -46.09375 81.5390625 C-41.01716033 86.36801365 -37.27092091 86.76993645 -30.46875 86.8515625 C-29.68628906 86.88056641 -28.90382813 86.90957031 -28.09765625 86.93945312 C-21.38215393 87.01184245 -16.25027816 85.20238314 -11.09375 80.8515625 C-9.51134339 77.19224721 -9.25919642 73.43583629 -10.09375 69.5390625 C-12.91205606 64.91147354 -16.25107797 63.23278015 -21.21875 61.5390625 C-21.91307129 61.28906494 -22.60739258 61.03906738 -23.32275391 60.78149414 C-28.63680533 58.91607395 -34.0282573 57.42191644 -39.46875 55.9765625 C-49.98586725 53.15234667 -58.87733572 50.06979845 -65.09375 40.5390625 C-67.79502743 35.26998252 -68.64361663 31.02946324 -68.59375 25.2265625 C-68.59020508 24.48180664 -68.58666016 23.73705078 -68.58300781 22.96972656 C-68.39105872 16.56864164 -66.76421753 11.83136452 -63.09375 6.5390625 C-62.2275 5.1778125 -62.2275 5.1778125 -61.34375 3.7890625 C-45.32092492 -12.23376258 -18.14737867 -12.66253661 0 0 Z " fill="#FCFDFC" transform="translate(604.09375,496.4609375)"/>
<path d="M0 0 C5.49994425 5.48511526 7.28279931 11.43068964 7.51660156 19.11743164 C7.51597347 21.73818629 7.49457437 24.35281982 7.453125 26.97265625 C7.44564951 28.37226039 7.43996277 29.77187511 7.43597412 31.17149353 C7.42082027 34.82626068 7.38163015 38.48037543 7.3371582 42.1348877 C7.29598156 45.87564269 7.27791571 49.61650478 7.2578125 53.35742188 C7.21512299 60.67611081 7.14486056 67.99413028 7.0625 75.3125 C0.4625 75.3125 -6.1375 75.3125 -12.9375 75.3125 C-12.967229 72.84475098 -12.967229 72.84475098 -12.99755859 70.32714844 C-13.07357308 64.22917248 -13.16229726 58.13143643 -13.25488281 52.03369141 C-13.29318967 49.39344007 -13.32803949 46.75313624 -13.359375 44.11279297 C-13.40498789 40.31979599 -13.46298956 36.52716095 -13.5234375 32.734375 C-13.53498871 31.55196228 -13.54653992 30.36954956 -13.55844116 29.15130615 C-13.57831085 28.05046692 -13.59818054 26.94962769 -13.61865234 25.81542969 C-13.63197601 24.84724304 -13.64529968 23.8790564 -13.6590271 22.88153076 C-13.95221309 20.17676553 -14.43065615 18.56830096 -15.9375 16.3125 C-20.73510384 13.67852142 -24.39141235 12.63140152 -29.9375 13.3125 C-35.99591958 15.43066925 -40.01310886 18.46371771 -42.9375 24.3125 C-43.05622573 25.94585192 -43.11459092 27.58377354 -43.14282227 29.22119141 C-43.16276749 30.24209869 -43.18271271 31.26300598 -43.20326233 32.31484985 C-43.22833107 33.97271011 -43.22833107 33.97271011 -43.25390625 35.6640625 C-43.27468735 36.7932309 -43.29546844 37.92239929 -43.31687927 39.08578491 C-43.38241335 42.70295972 -43.44127774 46.32020881 -43.5 49.9375 C-43.54318154 52.38542444 -43.58679571 54.83334128 -43.63085938 57.28125 C-43.73809871 63.29158999 -43.8393553 69.3020049 -43.9375 75.3125 C-50.5375 75.3125 -57.1375 75.3125 -63.9375 75.3125 C-63.9375 48.5825 -63.9375 21.8525 -63.9375 -5.6875 C-59.6475 -5.6875 -55.3575 -5.6875 -50.9375 -5.6875 C-49.9475 -3.0475 -48.9575 -0.4075 -47.9375 2.3125 C-47.23625 1.83039062 -46.535 1.34828125 -45.8125 0.8515625 C-31.81694771 -8.46612856 -14.27264541 -10.85567733 0 0 Z " fill="#FCFDFC" transform="translate(417.9375,528.6875)"/>
<path d="M0 0 C7.59 0 15.18 0 23 0 C23 30.69 23 61.38 23 93 C37.19 93 51.38 93 66 93 C66 99.93 66 106.86 66 114 C57.54232269 114.02255381 49.08466859 114.0409167 40.62696934 114.05181217 C36.70011342 114.05704031 32.77327906 114.06413669 28.84643555 114.07543945 C25.05985743 114.0862708 21.2733001 114.09227736 17.48670769 114.09487724 C16.03895681 114.09673105 14.59120712 114.10035081 13.14346504 114.10573006 C11.12242865 114.11294367 9.10137152 114.11340808 7.08032227 114.11352539 C5.35157616 114.11685631 5.35157616 114.11685631 3.58790588 114.12025452 C1 114 1 114 0 113 C-0.09565123 111.5325104 -0.12188309 110.06043116 -0.12025452 108.58982849 C-0.12162918 107.63765442 -0.12300385 106.68548035 -0.12442017 105.70445251 C-0.12082489 104.65141434 -0.11722961 103.59837616 -0.11352539 102.51342773 C-0.11367142 101.41112823 -0.11381744 100.30882874 -0.1139679 99.17312622 C-0.11326821 95.50992908 -0.10547324 91.84678206 -0.09765625 88.18359375 C-0.09579227 85.65153532 -0.09436827 83.11947652 -0.09336853 80.5874176 C-0.08993346 74.59151751 -0.08204269 68.59563911 -0.07201904 62.59974772 C-0.06085677 55.77518942 -0.05534717 48.95063028 -0.05032361 42.12606514 C-0.03986004 28.08403152 -0.02151501 14.04202081 0 0 Z " fill="#F9FCFA" transform="translate(164,490)"/>
<path d="M0 0 C7.59 0 15.18 0 23 0 C23 30.69 23 61.38 23 93 C36.86 93 50.72 93 65 93 C65 99.93 65 106.86 65 114 C43.55 114 22.1 114 0 114 C0 76.38 0 38.76 0 0 Z " fill="#F9FCFA" transform="translate(630,490)"/>
<path d="M0 0 C7.26 0 14.52 0 22 0 C22 30.69 22 61.38 22 93 C36.19 93 50.38 93 65 93 C65 99.93 65 106.86 65 114 C43.55 114 22.1 114 0 114 C0 76.38 0 38.76 0 0 Z " fill="#FCFDFD" transform="translate(242,490)"/>
<path d="M0 0 C6.93 0 13.86 0 21 0 C21 26.73 21 53.46 21 81 C14.4 81 7.8 81 1 81 C-0.71987206 79.28012794 -0.11974788 77.09122971 -0.12442017 74.79867554 C-0.12082489 74.05421173 -0.11722961 73.30974792 -0.11352539 72.54272461 C-0.11367142 71.76229294 -0.11381744 70.98186127 -0.1139679 70.17778015 C-0.11326858 67.5859402 -0.10547536 64.99417122 -0.09765625 62.40234375 C-0.09579213 60.6101536 -0.0943682 58.81796294 -0.09336853 57.02577209 C-0.08954284 52.29929203 -0.07971212 47.57284248 -0.06866455 42.84637451 C-0.05845153 38.0271445 -0.05387115 33.20790958 -0.04882812 28.38867188 C-0.03808989 18.92576565 -0.02049268 9.46289013 0 0 Z " fill="#F8FBF8" transform="translate(317,523)"/>
<path d="M0 0 C0.33 0 0.66 0 1 0 C2.57887484 38.88586541 2.57887484 38.88586541 -7 54 C-7.8899972 56.16506482 -8.7263424 58.35318911 -9.5 60.5625 C-12.39847263 68.35031535 -16.13418399 75.65775962 -20 83 C-20.48210937 83.94101562 -20.96421875 84.88203125 -21.4609375 85.8515625 C-25.43717112 93.09152544 -31.05956411 98.37085333 -37 104 C-38.20076172 105.26070312 -38.20076172 105.26070312 -39.42578125 106.546875 C-42.27077121 109.25803387 -45.30665179 111.36708545 -48.625 113.4375 C-49.24036621 113.82583008 -49.85573242 114.21416016 -50.48974609 114.61425781 C-75.32472282 130.1417465 -75.32472282 130.1417465 -87.20581055 130.11352539 C-88.79712044 130.11341209 -88.79712044 130.11341209 -90.420578 130.11329651 C-91.56440445 130.10813522 -92.7082309 130.10297394 -93.88671875 130.09765625 C-95.05886429 130.0962413 -96.23100983 130.09482635 -97.43867493 130.09336853 C-101.18830907 130.08776388 -104.93788385 130.07521056 -108.6875 130.0625 C-111.22721268 130.0574856 -113.7669263 130.05292259 -116.30664062 130.04882812 C-122.53778073 130.03779294 -128.76888612 130.02105025 -135 130 C-135 129.67 -135 129.34 -135 129 C-133.95996826 128.90295776 -133.95996826 128.90295776 -132.89892578 128.80395508 C-118.49508598 127.41690983 -104.73000954 125.67110719 -91 121 C-89.86949219 120.61972656 -88.73898437 120.23945312 -87.57421875 119.84765625 C-73.82910142 114.86316315 -61.2683386 108.36881866 -50 99 C-49.13890625 98.29101562 -48.2778125 97.58203125 -47.390625 96.8515625 C-19.63627348 72.9759247 -4.75626059 35.57286569 0 0 Z " fill="#F7F9F8" transform="translate(742,600)"/>
<path d="M0 0 C24.56005543 -0.67302007 45.76140426 -0.41623007 68.07568359 11.03222656 C72.36290334 13.18834672 76.74805923 15.14735889 81.10424805 17.15942383 C85.53954789 19.23587507 89.77648663 21.51978577 94 24 C94 24.66 94 25.32 94 26 C94.680625 26.185625 95.36125 26.37125 96.0625 26.5625 C100.21401668 28.59409327 102.85007422 31.67786871 106 35 C106.97737062 35.91858141 107.95629983 36.83551032 108.9375 37.75 C111 40 111 40 111 43 C112.485 43.495 112.485 43.495 114 44 C129.54429371 62.88812434 139.43456107 87.68754949 139.125 112 C139.11494978 113.36067049 139.10582754 114.72134817 139.09765625 116.08203125 C139.0742082 119.38820647 139.04138856 122.6940088 139 126 C138.67 126 138.34 126 138 126 C137.84144531 124.89785156 137.68289063 123.79570313 137.51953125 122.66015625 C132.1973535 87.39582972 115.75068614 51.33684888 86.8984375 29.015625 C81.47950914 25.24720582 75.84451011 22.04470694 70 19 C68.87207031 18.40316406 67.74414062 17.80632813 66.58203125 17.19140625 C45.75721426 6.81366726 23.08791273 2.3608729 0 1 C0 0.67 0 0.34 0 0 Z " fill="#F6F9F7" transform="translate(604,0)"/>
<path d="M0 0 C1.05904289 0.00212242 1.05904289 0.00212242 2.13948059 0.00428772 C4.39120751 0.00987861 6.64283446 0.02242937 8.89453125 0.03515625 C10.4225246 0.04017243 11.95051952 0.04473513 13.47851562 0.04882812 C17.2213926 0.05984505 20.96419498 0.07710338 24.70703125 0.09765625 C24.70703125 0.42765625 24.70703125 0.75765625 24.70703125 1.09765625 C23.72605469 1.20722656 22.74507812 1.31679688 21.734375 1.4296875 C-0.49394266 3.99770019 -20.65757025 9.20260678 -40.29296875 20.09765625 C-41.73542969 20.89429688 -41.73542969 20.89429688 -43.20703125 21.70703125 C-71.441818 38.53129946 -92.29208388 67.15595128 -100.38305664 98.82080078 C-102.74088948 108.51905663 -104.35136851 118.16166567 -105.29296875 128.09765625 C-105.62296875 128.09765625 -105.95296875 128.09765625 -106.29296875 128.09765625 C-106.86268619 107.30735208 -105.75061219 90.77745027 -96.94921875 71.7890625 C-95.50919615 68.65910266 -94.36250266 65.50040888 -93.29296875 62.22265625 C-88.40568724 48.38916453 -76.13375636 37.08804737 -65.16015625 27.84375 C-63.20834553 26.13833916 -63.20834553 26.13833916 -61.73828125 23.8828125 C-61.26132812 23.29371094 -60.784375 22.70460938 -60.29296875 22.09765625 C-59.30296875 22.09765625 -58.31296875 22.09765625 -57.29296875 22.09765625 C-56.79796875 20.61265625 -56.79796875 20.61265625 -56.29296875 19.09765625 C-54.15605747 17.84344685 -52.09219361 16.76533783 -49.85546875 15.72265625 C-48.57155822 15.10428368 -47.28770435 14.48579346 -46.00390625 13.8671875 C-45.3706543 13.56635254 -44.73740234 13.26551758 -44.08496094 12.95556641 C-41.69697335 11.81232548 -39.33942565 10.61195921 -36.98046875 9.41015625 C-35.41807611 8.63910534 -33.85558197 7.86826003 -32.29296875 7.09765625 C-31.58140625 6.72640625 -30.86984375 6.35515625 -30.13671875 5.97265625 C-24.58792975 3.23847036 -19.23602817 2.26657748 -13.11328125 1.4921875 C-2.3212347 -0.01750322 -2.3212347 -0.01750322 0 0 Z " fill="#F8F9F8" transform="translate(106.29296875,-0.09765625)"/>
<path d="M0 0 C0.33 0 0.66 0 1 0 C1.08451416 0.62229492 1.16902832 1.24458984 1.25610352 1.88574219 C6.00099186 35.75560659 18.95008301 66.3443814 43 91 C43.71542969 91.78890625 44.43085937 92.5778125 45.16796875 93.390625 C68.31280828 118.22898938 103.69954521 125.002644 136 128 C136 128.33 136 128.66 136 129 C129.2048841 129.10201175 122.40996808 129.1717207 115.61425781 129.21972656 C113.30591451 129.23975417 110.99762138 129.26698439 108.68945312 129.30175781 C105.35794643 129.35066594 102.02711462 129.37305811 98.6953125 129.390625 C97.165009 129.42159271 97.165009 129.42159271 95.60379028 129.45318604 C88.62052246 129.45533833 83.28018291 128.04498294 77 125 C77 124.34 77 123.68 77 123 C75.96939453 122.62101563 75.96939453 122.62101563 74.91796875 122.234375 C71.56307984 120.81517166 68.45481486 119.07830303 65.3125 117.25 C64.70108154 116.89728027 64.08966309 116.54456055 63.4597168 116.18115234 C50.68615795 108.79077197 50.68615795 108.79077197 45 105 C45 104.34 45 103.68 45 103 C44.38125 102.773125 43.7625 102.54625 43.125 102.3125 C40.38589791 100.62070165 39.94975528 99.00755839 39 96 C38.34 96 37.68 96 37 96 C37 95.34 37 94.68 37 94 C36.41089844 93.75378906 35.82179687 93.50757813 35.21484375 93.25390625 C29.1405608 89.81502648 25.4916804 82.38560707 22.3125 76.3828125 C20.820569 73.6742473 19.17828877 71.09700719 17.5 68.5 C13.24753506 61.87170139 9.48651437 55.4719826 6.78955078 48.06860352 C6.07115399 46.18642169 5.23838451 44.34890657 4.39453125 42.51953125 C-1.63114684 28.85501603 -0.5825208 14.63620863 0 0 Z " fill="#F6F9F7" transform="translate(0,601)"/>
<path d="M0 0 C1.65355139 2.48032709 2.45967085 4.03645342 3.32861328 6.78125 C3.56871124 7.53212891 3.8088092 8.28300781 4.05618286 9.05664062 C4.30834564 9.86294922 4.56050842 10.66925781 4.8203125 11.5 C5.21559647 12.74813477 5.21559647 12.74813477 5.61886597 14.02148438 C6.17419238 15.77921106 6.72712409 17.53769585 7.27783203 19.296875 C8.12242474 21.99178291 8.97667109 24.68349292 9.83203125 27.375 C10.37037325 29.08315015 10.90815279 30.79147769 11.4453125 32.5 C11.82962936 33.70946289 11.82962936 33.70946289 12.22171021 34.94335938 C13.19201679 38.0597091 14 40.71573591 14 44 C5.09 44 -3.82 44 -13 44 C-11.76376607 37.81883035 -10.55245067 32.03694997 -8.65234375 26.09375 C-8.43558487 25.40236938 -8.21882599 24.71098877 -7.99549866 23.99865723 C-7.54328301 22.55954007 -7.08863767 21.12118419 -6.6315918 19.68359375 C-5.93058452 17.47824409 -5.23715332 15.27061833 -4.54492188 13.0625 C-4.10199278 11.65611441 -3.65864884 10.2498594 -3.21484375 8.84375 C-3.00754135 8.18548218 -2.80023895 7.52721436 -2.58665466 6.84899902 C-1.83506364 4.48864797 -1.10972193 2.21944386 0 0 Z " fill="#1C892C" transform="translate(103,514)"/>
<path d="M0 0 C3.53536291 2.02020738 5.76937948 4.08438925 7 8 C7.53094113 11.51748496 7.69308313 13.89587703 5.76171875 16.97265625 C2.77387947 20.58327096 0.78615414 22.68173146 -4.0859375 23.23828125 C-8.12225906 23.36915174 -10.39347675 23.361333 -13.9375 21.25 C-17.53964699 17.3203851 -18.50721808 14.5158339 -18.39453125 9.03515625 C-17.68647817 5.38272403 -15.62465368 3.56216192 -13 1 C-9.06008887 -0.96995556 -4.29492536 -0.45307739 0 0 Z " fill="#FAFCFA" transform="translate(333,490)"/>
<path d="M0 0 C9.9 0 19.8 0 30 0 C29.34 1.32 28.68 2.64 28 4 C18.76 3.01 9.52 2.02 0 1 C0 0.67 0 0.34 0 0 Z " fill="#E2EFE6" transform="translate(604,0)"/>
<path d="M0 0 C0.33 0 0.66 0 1 0 C1.99 6.6 2.98 13.2 4 20 C2.68 20.33 1.36 20.66 0 21 C0 14.07 0 7.14 0 0 Z " fill="#EDF4EF" transform="translate(0,601)"/>
<path d="M0 0 C0.99 0 1.98 0 3 0 C2.43434519 7.67846322 1.8123221 15.34343208 1 23 C0.67 23 0.34 23 0 23 C0 15.41 0 7.82 0 0 Z " fill="#E8F1EA" transform="translate(0,105)"/>
<path d="M0 0 C0.33 0 0.66 0 1 0 C1 6.6 1 13.2 1 20 C-2 17 -2 17 -2.15698242 15.09887695 C-2.05748291 14.40238037 -1.9579834 13.70588379 -1.85546875 12.98828125 C-1.75556641 12.23095703 -1.65566406 11.47363281 -1.55273438 10.69335938 C-1.43220703 9.90767578 -1.31167969 9.12199219 -1.1875 8.3125 C-1.07857422 7.51521484 -0.96964844 6.71792969 -0.85742188 5.89648438 C-0.58643601 3.92889137 -0.29514792 1.96411387 0 0 Z " fill="#EDF4EE" transform="translate(742,600)"/>
<path d="M0 0 C2.79224073 -0.08071788 5.58216566 -0.14035408 8.375 -0.1875 C9.1690625 -0.21263672 9.963125 -0.23777344 10.78125 -0.26367188 C12.85586148 -0.29004405 14.93100865 -0.15486462 17 0 C17.66 0.99 18.32 1.98 19 3 C16.77110504 3.05428973 14.54182529 3.09292338 12.3125 3.125 C10.45044922 3.15980469 10.45044922 3.15980469 8.55078125 3.1953125 C5.18762143 3.01032021 3.0014413 2.45767895 0 1 C0 0.67 0 0.34 0 0 Z " fill="#298E37" transform="translate(562,604)"/>
<path d="M0 0 C6.6 0 13.2 0 20 0 C20 0.33 20 0.66 20 1 C13.4 1.66 6.8 2.32 0 3 C0 2.01 0 1.02 0 0 Z " fill="#EFF5F1" transform="translate(111,0)"/>
<path d="M0 0 C-0.66 1.32 -1.32 2.64 -2 4 C-4.31 3.67 -6.62 3.34 -9 3 C-6.38997624 -0.48003168 -4.1689578 -0.27793052 0 0 Z " fill="#EAF3ED" transform="translate(634,0)"/>
<path d="M0 0 C1 2 1 2 0.44140625 4.1640625 C0.15136719 4.97617187 -0.13867188 5.78828125 -0.4375 6.625 C-0.72496094 7.44226563 -1.01242187 8.25953125 -1.30859375 9.1015625 C-1.53675781 9.72804688 -1.76492188 10.35453125 -2 11 C-2.33 11 -2.66 11 -3 11 C-3.36923077 4.6 -3.36923077 4.6 -1.5 1.5625 C-1.005 1.046875 -0.51 0.53125 0 0 Z " fill="#0F7917" transform="translate(561,512)"/>
<path d="M0 0 C6.64615385 1.47692308 6.64615385 1.47692308 8.4375 4.125 C8.7159375 5.053125 8.7159375 5.053125 9 6 C5.06326356 4.68775452 2.77280706 3.08089673 0 0 Z " fill="#147F1E" transform="translate(425,70)"/>
<path d="M0 0 C0.33 0 0.66 0 1 0 C1.33 2.31 1.66 4.62 2 7 C0.68 7.33 -0.64 7.66 -2 8 C-1.47731534 5.23723823 -0.89130413 2.6739124 0 0 Z " fill="#E1EEE3" transform="translate(2,614)"/>
</svg>
